# xmcd
#
# Track frame offsets: 
#        150
#        15118
#        30558
#        45120
#        59906
#
# Disc length: 1019 seconds
#
# Revision: 4
# Processed by: cddbd v1.5.2PL0 Copyright (c) Steve Scherf et al.
# Submitted via: ExactAudioCopy v1.3
#
DISCID=2f03f905
DTITLE=Gfriend - SUMMER MINI ALBUM Sunny Summer
DYEAR=2018
DGENRE=K-POP
TTITLE0=Sunny Summer
TTITLE1=Vacation
TTITLE2=Sweety
TTITLE3=Windy Windy
TTITLE4=Love In The Air
EXTD=
EXTT0=
EXTT1=
EXTT2=
EXTT3=
EXTT4=
PLAYORDER=
